<svg width="884" height="298" viewBox="0 0 884 298" fill="none" xmlns="http://www.w3.org/2000/svg">
<path d="M80 149.478C88.3707 123.212 111.585 112.192 138.922 111.234C164.457 110.339 194.326 118.052 218.209 126.314C337.049 167.428 211.548 255.014 218.831 168.134C220.553 147.599 232.082 132.684 245.26 117.763C265.134 95.2616 285.771 91.8795 315.065 89.7795C366.379 86.101 404.08 101.824 431.198 151.966C458.429 202.318 395.717 200.035 396.218 165.958C396.613 139.067 429.102 94.5489 456.85 86.2038C481.674 78.7379 525.56 77.7937 550.207 89.4686C573.322 100.418 589.958 127.66 602.366 149.168C610.063 162.51 613.378 183.843 603.687 197.284C581.93 227.464 538.273 224.535 540.335 183.992C541.109 168.774 552.338 152.117 562.1 140.928C572.78 128.687 582.767 118.425 599.101 108.125C667.772 64.819 778.034 114.386 803.383 146.68" stroke="url(#paint0_linear_713_42306)" stroke-width="3" stroke-linecap="round"/>
<defs>
<linearGradient id="paint0_linear_713_42306" x1="717.494" y1="149.07" x2="80" y2="149.07" gradientUnits="userSpaceOnUse">
<stop stop-color="#A9FE81"/>
<stop offset="1" stop-color="#C0F0FF"/>
</linearGradient>
</defs>
</svg>
